Input #0, mov,mp4,m4a,3gp,3g2,mj2, from '/home/hbattu/projects/huberman-gpt/huberman-audio/mp3/tmpo2vhpepp.mp4':
  Metadata:
    major_brand     : dash
    minor_version   : 0
    compatible_brands: iso6mp41
    creation_time   : 2022-12-30T01:30:16.000000Z
  Duration: 04:04:26.72, start: 0.000000, bitrate: 129 kb/s
    Stream #0:0(eng): Audio: aac (LC) (mp4a / 0x6134706D), 44100 Hz, stereo, fltp, 0 kb/s (default)
    Metadata:
      creation_time   : 2022-12-30T01:30:16.000000Z
      handler_name    : ISO Media file produced by Google Inc.
Stream mapping:
  Stream #0:0 -> #0:0 (aac (native) -> mp3 (libmp3lame))
Press [q] to stop, [?] for help
[graph_0_in_0_0 @ 0x55ad3e002080] tb:1/44100 samplefmt:fltp samplerate:44100 chlayout:0x3
Output #0, mp3, to '../huberman-audio/mp3/__RAXBLt1iM.mp3':
  Metadata:
    major_brand     : dash
    minor_version   : 0
    compatible_brands: iso6mp41
    TSSE            : Lavf58.29.100
    Stream #0:0(eng): Audio: mp3 (libmp3lame), 44100 Hz, stereo, fltp, delay 1105 (default)
    Metadata:
      creation_time   : 2022-12-30T01:30:16.000000Z
      handler_name    : ISO Media file produced by Google Inc.
      encoder         : Lavc58.54.100 libmp3lame
No more output streams to write to, finishing.
size=  229169kB time=04:04:26.73 bitrate= 128.0kbits/s speed=87.1x    
[AVIOContext @ 0x55ad3dfb5900] Statistics: 0 seeks, 337 writeouts
video:0kB audio:229168kB subtitle:0kB other streams:0kB global headers:0kB muxing overhead: 0.000147%
Input file #0 (/home/hbattu/projects/huberman-gpt/huberman-audio/mp3/tmpo2vhpepp.mp4):
  Input stream #0:0 (audio): 631643 packets read (234667549 bytes); 631643 frames decoded (646802432 samples); 
  Total: 631643 packets (234667549 bytes) demuxed
Output file #0 (../huberman-audio/mp3/__RAXBLt1iM.mp3):
  Output stream #0:0 (audio): 561461 frames encoded (646802432 samples); 561462 packets muxed (234668199 bytes); 
  Total: 561462 packets (234668199 bytes) muxed
[AVIOContext @ 0x55ad3dfef100] Statistics: 2 seeks, 897 writeouts
[AVIOContext @ 0x55ad3dfbe880] Statistics: 237365189 bytes read, 0 seeks
